<mxfile host="app.diagrams.net" modified="2022-08-15T11:16:58.751Z" agent="5.0 (Windows NT 10.0; Win64; x64) AppleWebKit/537.36 (KHTML, like Gecko) Chrome/104.0.0.0 Safari/537.36" etag="wc5-2IsnWUcGWBpBkvbD" version="20.2.3" type="github">
  <diagram id="aS9pjdUC0Do7hMSleVWt" name="第 1 页">
    <mxGraphModel dx="1422" dy="762" grid="0" gridSize="10" guides="1" tooltips="1" connect="1" arrows="1" fold="1" page="1" pageScale="1" pageWidth="1654" pageHeight="1169" background="none" math="0" shadow="0">
      <root>
        <mxCell id="0" />
        <mxCell id="1" parent="0" />
        <mxCell id="GVNp9K_By8bRqbL6RcLQ-5" value="DelegatingEntityResolver" style="swimlane;fontStyle=0;childLayout=stackLayout;horizontal=1;startSize=26;fillColor=#CCFFFF;horizontalStack=0;resizeParent=1;resizeParentMax=0;resizeLast=0;collapsible=1;marginBottom=0;direction=east;strokeColor=default;swimlaneLine=1;glass=0;rounded=0;shadow=0;" parent="1" vertex="1" collapsed="1">
          <mxGeometry x="559" y="307" width="182" height="30" as="geometry">
            <mxRectangle x="604" y="162" width="183" height="52" as="alternateBounds" />
          </mxGeometry>
        </mxCell>
        <mxCell id="GVNp9K_By8bRqbL6RcLQ-6" value="" style="text;strokeColor=none;fillColor=#CCFFFF;align=left;verticalAlign=top;spacingLeft=4;spacingRight=4;overflow=hidden;rotatable=0;points=[[0,0.5],[1,0.5]];portConstraint=eastwest;" parent="GVNp9K_By8bRqbL6RcLQ-5" vertex="1">
          <mxGeometry y="26" width="183" height="26" as="geometry" />
        </mxCell>
        <mxCell id="CscIat6FRDX-j5f2x0rS-8" value="EntityResolver" style="swimlane;fontStyle=0;childLayout=stackLayout;horizontal=1;startSize=26;fillColor=#CCFFCC;horizontalStack=0;resizeParent=1;resizeParentMax=0;resizeLast=0;collapsible=1;marginBottom=0;direction=east;strokeColor=default;swimlaneLine=1;glass=0;rounded=0;shadow=0;" parent="1" vertex="1" collapsed="1">
          <mxGeometry x="545.5" y="204" width="209" height="30" as="geometry">
            <mxRectangle x="758" y="56" width="180" height="52" as="alternateBounds" />
          </mxGeometry>
        </mxCell>
        <mxCell id="CscIat6FRDX-j5f2x0rS-9" value="" style="text;strokeColor=none;fillColor=#CCFFCC;align=left;verticalAlign=top;spacingLeft=4;spacingRight=4;overflow=hidden;rotatable=0;points=[[0,0.5],[1,0.5]];portConstraint=eastwest;" parent="CscIat6FRDX-j5f2x0rS-8" vertex="1">
          <mxGeometry y="26" width="180" height="26" as="geometry" />
        </mxCell>
        <mxCell id="CscIat6FRDX-j5f2x0rS-12" value="ResourceEntityResolver" style="swimlane;fontStyle=0;childLayout=stackLayout;horizontal=1;startSize=26;fillColor=#CCFFFF;horizontalStack=0;resizeParent=1;resizeParentMax=0;resizeLast=0;collapsible=1;marginBottom=0;direction=east;strokeColor=default;swimlaneLine=1;glass=0;rounded=0;shadow=0;" parent="1" vertex="1" collapsed="1">
          <mxGeometry x="527" y="417" width="246" height="30" as="geometry">
            <mxRectangle x="604" y="162" width="183" height="52" as="alternateBounds" />
          </mxGeometry>
        </mxCell>
        <mxCell id="CscIat6FRDX-j5f2x0rS-13" value="" style="text;strokeColor=none;fillColor=#CCFFFF;align=left;verticalAlign=top;spacingLeft=4;spacingRight=4;overflow=hidden;rotatable=0;points=[[0,0.5],[1,0.5]];portConstraint=eastwest;" parent="CscIat6FRDX-j5f2x0rS-12" vertex="1">
          <mxGeometry y="26" width="183" height="26" as="geometry" />
        </mxCell>
        <mxCell id="CscIat6FRDX-j5f2x0rS-24" value="" style="endArrow=classic;html=1;rounded=0;exitX=0.5;exitY=0;exitDx=0;exitDy=0;entryX=0.5;entryY=1;entryDx=0;entryDy=0;" parent="1" source="CscIat6FRDX-j5f2x0rS-12" target="GVNp9K_By8bRqbL6RcLQ-5" edge="1">
          <mxGeometry width="50" height="50" relative="1" as="geometry">
            <mxPoint x="-367" y="15" as="sourcePoint" />
            <mxPoint x="-317" y="-35" as="targetPoint" />
          </mxGeometry>
        </mxCell>
        <mxCell id="CscIat6FRDX-j5f2x0rS-25" value="" style="endArrow=classic;html=1;rounded=0;exitX=0.5;exitY=0;exitDx=0;exitDy=0;entryX=0.5;entryY=1;entryDx=0;entryDy=0;dashed=1;" parent="1" source="GVNp9K_By8bRqbL6RcLQ-5" target="CscIat6FRDX-j5f2x0rS-8" edge="1">
          <mxGeometry width="50" height="50" relative="1" as="geometry">
            <mxPoint x="-357" y="25" as="sourcePoint" />
            <mxPoint x="-307" y="-25" as="targetPoint" />
          </mxGeometry>
        </mxCell>
      </root>
    </mxGraphModel>
  </diagram>
</mxfile>
